<?xml version="1.0" encoding="UTF-8"?>
<svg viewBox="0 0 254.3851 504.75568" xmlns="http://www.w3.org/2000/svg">
 <g transform="translate(-69.464 -78.285)">
  <path transform="matrix(.95134 0 0 1.0174 5.4611 -1.5806)" d="m158.23 102.38c0 13.193-11.197 23.887-25.01 23.887s-25.01-10.695-25.01-23.887 11.197-23.887 25.01-23.887 25.01 10.695 25.01 23.887z" fill="#b64e17"/>
  <path d="m123.78 80.032c-14.419 8.7759-16.695 23.421-9.7999 38.179-9.8248-12.502-7.6825-30.833 9.7999-38.179z" fill="#ddbdb0"/>
  <path d="m147.94 87.824c2.52 4.2078 3.9417 25.891 5.7023 14.906s-8.2224-19.113-5.7023-14.906z" fill="#ddbdb0"/>
  <path d="m121.67 123.51c-18.293-28.524 8.551-44.685 8.3712-44.801 0.22092-0.11627-23.012 16.277-8.3712 44.801z" fill="#371a12"/>
  <path d="m132.32 125.57c-3.7205-29.144-1.5254-46.545-1.7052-46.661 0.22092-0.11627 2.2567 18.603 1.7052 46.661z" fill="#371a12"/>
  <path d="m146.3 121.23c8.0611-30.849-14.857-42.515-15.037-42.631 0.22092-0.11627 26.285 9.6113 15.037 42.631z" fill="#371a12"/>
  <path d="m154.87 102.27c0.84168-0.16834 1.1784-0.84169 2.02 1.3467s1.6834 8.0802 0.84169 12.457-0.33667 8.7535-1.6834 10.269-7.2385 6.7335-8.4169 10.437-1.515 48.986-2.1884 53.026-3.3667 11.952-3.7034 15.319-0.33667 5.8918-0.33667 5.8918-8.7535-1.1784-12.625-0.16833c-3.6929 0.96336-6.2089 0.87926-6.2089 0.87926s0.82214-22.931 1.4955-28.655 9.4269-35.519 9.9319-37.876 1.5891-11.758 1.8517-12.625c1.7125-5.6572 4.6371-5.9612 4.8818-7.4068 0.40225-2.3764-1.3467-4.3768-3.1984-6.7335s-2.8617-2.3567-1.8517-4.5451 2.8617-2.3567 3.8718-1.3467 3.5328 5.6257 5.8895 7.1407 2.6957 1.1078 4.7157-1.7539 5.0501-11.279 4.5451-12.625 0.50501-2.8617 0.16834-3.0301z" fill="#a67054"/>
  <path d="m127.15 210.11c-3.0208-2.6765-3.2464-15.869-2.481-20.105 0.61791-3.4207 1.8471-6.6423 2.1733-12.784 0.36025-6.7826 7.4616-25.454 8.4426-29.034 0.97115-3.5446 0.92578-17.427 2.3375-19.32 1.2556-1.6832-2.7494 3.4644-2.5434 5.1117s-0.82366 8.8544-1.0296 10.708-6.5893 25.328-7.0012 26.769-3.5006 10.708-3.2947 12.561-1.2355 26.975-1.2355 27.799 4.8379-2.1162 4.632-1.7044z" fill="#ddbdb0"/>
  <path d="m125.2 210.16c0.61775-3.7065 4.6255-9.4721 7.413-10.502s2.2141 7.9546 4.4792 9.1901 3.0971 3.0352 8e-3 3.0352-10.459-1.7235-11.901-1.7235z" fill="#ddbdb0"/>
  <path d="m173.79 458.59c1.349 1.349 4.4966 6.2952 6.7449 8.5435s10.117 8.0939 14.614 8.9932 41.144 29.453 43.392 32.376 17.762 23.607 18.661 23.832 12.141-14.839 12.141-14.839-20.46-23.832-22.258-26.08-26.53-29.678-30.577-31.251-20.01-17.762-22.033-17.986-20.235 16.188-20.684 16.413z" fill="#371a12"/>
  <path d="m191.35 453.7c1.7986 6.7449 11.466 15.963 13.265 15.963s6.7449-2.4731 5.3959-4.7214-13.939-14.614-15.963-13.715-2.0235 2.698-2.698 2.4731z" fill="#a67054"/>
  <path d="m244.19 497.32c0.66591-0.25607 7.001 8.6887 8.1251 7.3398s3.2202-2.8674 2.3209-4.2163-7.3054-9.4015-9.1041-9.8512-2.0078 6.9838-1.3419 6.7277z" fill="#a67054"/>
  <path d="m271.52 517.36c2.0235 2.2483 2.9954 7.5474 4.5692 8.6716s15.288 17.986 15.064 21.584-12.815 34.624-14.839 35.298-5.3959-1.5738-6.5201-3.1476 0.89932-12.141 0.22483-13.49-5.3959-8.5435-6.0704-11.242-3.5973-12.366-5.8456-16.862-5.8456-5.3959-3.8221-5.3959 4.7214-0.89932 6.5201-2.4731 10.944-13.393 10.719-12.943z" fill="#d9ae78"/>
  <path d="m276.78 517.99c0.94789-1.8958 13.27-11.849 13.27-14.455s-21.327-26.541-24.171-29.858-19.195-21.564-24.645-24.408-14.218-7.5831-17.536-9.0049-11.138-11.138-12.086-11.612-19.906 21.327-20.616 22.749 8.7679 6.8722 10.427 9.4788 20.143 6.6352 24.645 8.7679 26.778 22.038 29.858 25.119 18.958 22.986 20.853 23.223z" fill="#6f3719"/>
  <path d="m198.25 439.3c0 3.5546 10.123 20.572 15.81 20.098s10.118 0.54072 12.725 3.8583 30.806 20.616 35.072 26.778 19.906 23.697 19.906 23.697l-4.7394 4.7394s-18.247-22.512-21.564-25.119-19.432-17.536-22.512-19.195-4.2655-3.7915-7.1091-4.2655-19.195-5.4503-22.038-6.6352-11.375-9.4788-12.322-10.901 6.7738-13.056 6.7738-13.056z" fill="#371a12"/>
  <path d="m170.22 345.91c2.9777 0.99256 10.918 3.2258 13.4 5.9554s8.933 9.4293 9.4293 11.663 1.4888 4.7147 0.49628 3.9702-2.9777 0-1.2407 3.474 3.7221 3.2258 4.4665 7.1961 0 4.9628 3.474 6.2035 9.9256 6.6998 10.67 9.6775 1.737 10.422 2.9777 14.144 5.4591 4.7146 6.4516 4.4665-2.2333 6.2035-3.474 8.6849-24.07 28.288-25.807 30.273-4.7147 1.737-4.7147 1.737-6.6998 3.474-9.9256 3.474-27.295 6.9479-29.777 6.4516-3.474-6.6998-4.7146-11.166-5.4591-24.07-7.4442-30.025-2.4814-13.151-3.2258-18.61-2.7295-9.1812-3.9702-12.655-3.2258-6.9479-2.9777-11.414 41.687-32.258 42.928-33.003 3.2258 0.74442 3.2258 0.74442l-0.24814-1.2407z" fill="#e6e6e6"/>
  <path d="m150.79 243.39c2.1439 0.17866 2.6799-1.072 5.1811 1.2506s4.8238 5.7171 5.3598 10.541 0.71464 8.933 1.7866 13.042-0.17866 2.3226 1.7866 5.8958 2.3226 10.362 2.3226 12.863 0.17866 6.6104-0.53597 11.256 0.35731 11.256-2.5012 14.471-5.0025 5.1811-5.1811 6.7891 1.9653 0.17866 3.5732 0.8933 2.1439 0.8933 2.6799 2.5012 4.1092 3.3945 3.9305 5.0025 0.53598 4.4665-0.71464 5.7171-0.17866 6.4317-1.9652 7.6824-1.2506 1.7866 0 2.6799 2.8586 0.8933 3.2159 2.1439-23.404 14.471-26.442 16.794-14.471 10.005-16.437 12.863-2.1439 3.5732-2.1439 3.5732-0.8933-3.7518-2.5012-5.3598-2.8586-1.6079-3.3945-2.8586-11.792-27.692-13.221-29.479-5.8958-7.1464-7.5037-11.077-2.1439-16.615-2.3226-19.831-0.35732-10.362-0.71464-13.399-0.17866-5.5384 0.8933-8.397 8.0397-15.186 9.2903-17.151 5.8958-8.2183 6.6104-10.005 3.7518-5.5384 4.1092-6.2531 29.836-13.221 34.839-12.149z" fill="#d9ae78"/>
  <path d="m116.84 255.72c0.53598 0.8933 0.71463 5.0025-1.072 7.325s-5.7171 7.6824-6.9677 9.6476-0.71464 1.072-0.71464 1.072l1.072 1.7866s4.4665-7.1464 8.933-8.7543 23.94-7.1464 25.727-10.541 1.4293-6.6104 2.3226-6.9677 5.3598 1.6079 5.8958 3.2159 1.072 8.0397-3.5732 9.2903-19.831 2.6799-21.082 5.3598-2.3226 5.1811-2.3226 5.1811-8.7543 2.3226-11.97 6.7891-4.8238 9.2903-5.7171 10.362-5.0025-4.2878-5.8958 1.7866-5.2817-0.18123-5.1811-2.1439c0.09672-1.8879 17.957-30.835 20.546-33.409z" fill="#f0f4f5"/>
  <path d="m115.82 219.26c1.01-1.5992 2.8617-4.3768 6.7335-7.4068s15.655-2.3567 19.19-0.67335 11.784 5.8918 12.625 9.9319 1.1784 11.784 0 14.477-7.5752 11.447-8.0802 14.645 1.8517 3.7034-0.67335 6.2285-17.002 6.3968-22.052 9.0902-7.7435 4.2084-10.269 5.8918-4.3768 4.8818-5.0501 2.6934-0.057-0.78602 2.1314-4.4894 4.1792-4.4894 5.6943-7.3512 1.6012-3.6464 1.4329-5.4981-1.515-0.84168-3.7034-1.6834-4.0401-1.01-3.7034-3.8718 0-2.3567-1.01-3.5351-1.01-1.01-0.16833-3.0301 3.0301-1.3467 2.3567-2.5251-3.5351-5.7235-3.7034-7.5752 2.8617-1.01 2.8617-1.6834-2.1884-2.3567-2.02-4.0401 4.2084-3.1984 5.7235-5.2184 0.67335-2.7776 1.6834-4.3768z" fill="#a67054"/>
  <path d="m119.44 227.97c-2.3527 3.1529-2.9363 4.1246-3.7776 5.6908-0.77452 1.2552-0.309 2.2753 1.0711 2.6524s1.1143-3.5937 2.2215-1.2854-1.5772 5.1852-2.813 6.5419-4.2964 3.9947-5.077 4.7753c-2.5325 1.069 0.5285 1.1244 0.71324 2.3808s-1.8256 2.9542-1.4007 4.2755c0.35627 1.108 1.521 0.84128 1.9062 0.3125 1.182-1.6222-2.2253-1.9017 0.1875-3.25s2.2284-0.93252 6.9688-1.5c7.4741-13.334 7.0393-4.7017 10.406-1.0312 0.0674-0.31264 0.18758-0.66229 0.28125-1-0.14611 2.4131-0.32327 4.9793-0.375 6.125 0.43136 0.63858 1.4509 0.91624 1.9994 0.375 9.1994-6.6272-1.8164-12.903 1.9099-19.639 0.81006-1.6591 4.4264-3.659 3.5906-4.8926-1.3887-2.0496-7.9774-3.5641-11.685 0.85243s-5.9297 5.7475-6.3627 1.0003 10.932-4.9656 8.6791-5.9583-6.0911 0.42141-8.4438 3.5743zm17 22.688c-4.8614 1.4823-4.2677 2.7016 0 0zm5.5656-7.1155c0.84822-0.17391-5.7119 7.0696-4.4757 7.2019 2.086-0.15916 11.233-1.9598 10.223-5.2114-0.67304-3.1221 3.0109-14.386 1.25-12.969-3.1638 2.5456-3.2125 8.5643-6.9969 10.978z" fill="#6f3719"/>
  <path d="m130.48 262.34c-0.52381-2.2698 2.2384-7.129 3.9845-8.6131s3.7557-3.3503 6.481-3.9407c1.3652-0.29576 4.8108-3.3911 5.7721-2.0068 0.38171 0.54968-1.1738 3.9124-0.29936 5.0481 0.57365 0.745 0.83875 2.1773-0.18617 3.1462-1.2946 1.2239-14.181 7.0648-15.752 6.3664z" fill="#6f3719"/>
  <path d="m118.59375,226.0625c-.25588-.0161-.53051.012-.78125.0312-1.00295.0771-3.09719,2.02812-4.4721,2.33315s-1.57028.34248-.0379.26704 1.51146.12475 1.69411.26421c.7715.7715.69352,2.80193.31172,3.10464-.57849.45865 2.16613-1.35463 2.53538-2.21904s1.41511-2.05077 1.875-2.84375-.35735-.88923-1.125-.9375l4e-005,5e-005z" fill="#6f3719"/>
  <path d="m132.85 214.51c0.4629 4.3204-4.1661 0.92581 0 5.7091s2.7774 8.1102 6.4806 8.1102 6.4003-0.17553 8.2519 1.0589 1.0061 1.3233 1.469 4.255 1.3887 5.7091 2.1602 6.4806 4.5967-6.1365 4.4172-10.453 0.5227-7.1371-2.1027-10.995c-3.0694-4.5099-7.5607-6.6349-11.881-7.4064s-6.172-0.7715-8.1779-0.4629 5.5548 0.3086 6.0177 2.3145-4.1661 2.3145-6.6349 1.3887z" fill="#6d5547"/>
  <path d="m139.71 234.76c-1.8622 0.18295-2.7629-2.5615-0.23972 1.5173 1.0992 1.7769 2.4396 1.5081 3.7332 0.82329s-0.0761-0.76093-0.53265-2.2067-0.0761-1.5219-1.8262-0.98921-0.98235 0.77924-1.1345 0.85534z" fill="#371a12"/>
  <path d="m110.15 231.55c-0.37192-0.5477-1.5469-1.7906-1.0643-2.0006 2.1701-0.94422 4.2034-0.76363 4.2619 0.90375 0.0753 2.1467 2.2378 1.5389 1.9476 1.6513-0.70325 0.27216-1.4262 0.14524-2.8149 0.22239s-1.9549-0.22397-2.3303-0.77679z" fill="#6f3719"/>
  <path d="m118.07 223.68c2.5403-2.3194 1.7672-3.5343 4.4179-2.9821s2.9821 1.988 3.7552 2.5403-4.3074 0.66268-5.9642 0.99402-2.3194-0.44179-2.2089-0.55223z" fill="#502f20"/>
  <path d="m120.39043,221.41938c-.59136,1.44144-.83776,1.95887-.59136,2.40239s1.38131.29168 1.86179.20544 3.10314-.23008 3.1401-.47648-.6172-2.31352-1.18391-2.47367-2.01927-.60631-2.49975-.39687-.75151.72687-.72687.73919z" fill="#120500"/>
  <path d="m119.97 220.68c1.003-0.92581 3.0089-0.6172 5.0148 0.4629s1.5428 1.3449 2.0829 1.4992-0.55159-0.36608-1.4166-2.013c-0.97349-1.8535-2.9005-1.5518-3.7492-1.4591-0.87444 0.0956-2.8111 0.13412-3.1999 2.2552s-1.3354 2.3596-0.82415 2.1629 0.93491-1.4422 2.0922-2.9081z" fill="#150000"/>
  <path d="m120.60584,224.57561c.95297.1212 1.05951.39371 1.71311.20283 .23303-.0681.50431-.70173-.96154-.54743s-1.98499.0367-2.25538.45274 .55084-.22934 1.50381-.10814z" fill="#ddbdb0"/>
  <path d="m108.09375,235.15625c-.0457-.0253-.0289.0996 0,.5625 .0772,1.23441 2.6289,4.79099 2.9375,5.5625s.9287,1.3008 1.46875.375c.2521-.43217.82635-.67869 1.40625-.84375-.76397.55678-1.86824,1.98547-2.439,2.18364-1.04723.36361-2.71646,1.47826-2.74412,2.66026-.59886,4.2469 3.52991-.76712 4.68312-1.9064 .785-.85637 2.07575-2.61993 1.71875-3.1875 .0576-.0108.17091-.023.1875-.0312-1.543-1.46585-5.13864-4.34765-6.21875-4.65625-.67506-.19288-.9239-.67656-1-.71875v-5e-005z" fill="#4a2318"/>
  <path d="m112.1 241.28c-1.2344-1.3887-2.7003-2.546-1.7744-2.6231s2.9317 0.69435 3.3175 1.1572-0.69435 1.8516-1.543 1.4659z" fill="#1a0301"/>
  <path d="m113.06 242.65c1.0924-1.2527 2.5423-2.9757 2.6999-1.8475 0.16983 1.2156-3.1121 3.7542-4.0348 4.9909-0.9258 1.2407-2.6096 2.0643-2.9954 1.3321-0.23025-0.43706 7e-3 -0.77282 0.31419-0.9705s2.9237-2.2522 4.0161-3.505z" fill="#a67054"/>
  <path d="m108.83 229.39c-0.69436 0.0771-0.38186-1.0726 0.31978-1.6583 2.1962-1.7013 1.6725 0.67424-0.31978 1.6583z" fill="#ddbdb0"/>
  <path d="m110.25 234.49c2.083-1.3887 3.3946-2.0059 2.4688-2.0831s-1.7119 0.48953-2.0955 0.76541-1.8118 0.0976-1.4128 0.89307c0.41797 0.83326 1.0395 0.42458 1.0395 0.42458z" fill="#6f3719"/>
  <path d="m111.22865,231.63739c-.46274-.39146-.23698-.89055-.11295-1.40332s.60223-.50948 1.16575.20361c.4921.62271 2.00753,1.67898.54168,1.60183s-1.13174-.0107-1.59448-.40212z" fill="#1b0403"/>
  <path d="m148.62 229.69c-0.17951-3e-3 5e-3 1.0453-0.34375 3.25-0.58511 1.5725 0.1837 2.9804 0.21875 4.5-0.11221 2.4614-1.24 7.5194-1.8125 9.7812s-3.426 1.7648-5.5312 2.3438c-4.6937 1.2521-2.01-1.8248 0.12421-4.102s5.2222-11.722 2.907-10.742c-2.3367 0.56126-3.7159-0.90639-6.0938-1.875 0.0473 0.0488-0.30511 4.2104 1.9375 6.4062 3.708 3.6307 1.7578 4.5391 0.31869 6.5932s-6.1428 4.4941-7.4308 6.37c3.1983-3.183-1.1502-12.631-2.3567-13.744-3.1652 3.0524 0.69507 14.682-2.0625 2.4375-0.43988-1.5987-1.1969-1.4136-2.75-3.9375s2.3518-6.5412 0.25-5.8438-8.3529 7.7822-8.741 13.953c-0.24721 3.4238-5.2345 3.8968-5.9778 5.3281-0.7743 1.4912-1.4685 2.344-0.5625 3.25s3.0586 1.6968 5 1.625c2.0079-0.0743 1.7304 0.61765 1.5625 3.6875-0.17413 3.1848-3.2249 5.0406-9.3125 14.75 7.4648-5.969 20.735-10.639 23.156-11.375s0.73397-6.1385 3.25-8.0625c2.4725-3.8345 11.391-3.6462 13.281-7.375 0.30679-0.8621 3.135-5.0298 4.0625-6.7812 1.3634-2.6763 0.50733-5.8164-1.6562-8.5938-0.94656-1.2151-1.2979-1.8412-1.4375-1.8438l5e-5 5e-5z" fill="#4a2318"/>
  <path d="m107.96 234.97c-0.3086-0.7715-0.33864-1.3286 0.51001-1.1743s1.003 1.3887 3.2403 3.2403 3.7974 3.2639 3.4888 3.4182-3.9176-3.7438-5.6921-4.361-1.3157-0.8145-1.5471-1.1231z" fill="#a67054"/>
  <path d="m145.79 228.59c2.9676 1.3697 5.2048 1.5629 2.2342 4.4769-3.1523 3.0922-1.3524 2.9129-3.6296 3.6794-2.4328 0.8189-3.0856 0.72012-5.2469-0.66172-1.4335-0.91656-1.1309-3.9146-0.8265-4.6755 1.0614-2.8498 4.6537-3.6617 7.4687-2.819z" fill="#6f3719"/>
  <path d="m138.13 231.31c1.2707-2.1494 2.2895-2.8537 4.558-3.2036s10.734 0.57641 3.6655 6.8674c0.99853-1.9487 6.2612-5.5096-2.534-6.1208-5.0419-0.35037-4.7 1.7983-5.6896 2.4571z" fill="#a67054"/>
  <path d="m139.86 232.15c-1.4101 0.5707-1.926 1.7437-1.7469 2.3524 0.25856 0.87905 2.8623-0.66534 2.634-1.5024s0.52293-1.4208-0.88715-0.85006z" fill="#a67054"/>
  <path d="m144 232.59c-0.15782 1.7822 0.91329 1.6983 0.63162 0.95044-0.68897-1.8294 1.4035-1.7765 0.83753-2.195-0.66207-0.48954-1.4229 0.72264-1.4692 1.2445z" fill="#a67054"/>
  <path d="m146.67314,228.91546c.25624.24305 1.85065.61168 1.84883,1.38346-.003,1.22034.88012.46226-.21586-.65898-.94702-.96884-1.88921-.96753-1.63297-.72448z" fill="#ddbdb0"/>
  <path d="m145.3999,231.77744c-.2341-.11607-.6954.30879-.80378.80232s-.14735,1.07442.52603.57214 .51184-1.25839.27775-1.37446z" fill="#ddbdb0"/>
  <path d="m139.3746,232.96337c-.93617.70739-.76409,1.11188.30588.63853 .86032-.38061.84721-.79195.42524-.96134s-.46221.0697-.73112.32281z" fill="#ddbdb0"/>
  <path d="m131.83 210.24c3.2403 4.3204 7.04 5.5017 9.8174 5.656s7.4064 0.1543 9.7209 2.4688 4.2867 9.427 4.1653 6.942c-0.20587-4.2153-3.2407-9.3076-6.3267-11.159s-8.1655-3.1802-11.211-3.7032c-3.2915-0.56524-8.7892-0.66721-6.1661-0.20429z" fill="#6d5547"/>
  <path d="m147.24 232.07c-0.14064-0.91359-0.40771-1.3079-1.7539-1.6314-2.1985-0.52826-4.6547 1.2563-4.8352 2.36-0.25539 1.5618-3.1836 2.0825-2.0484 1.9739 1.0231-0.0979 1.944-1.3364 2.8032-1.1289 0.82697 0.19975 0.58385 2.0788 2.1818 1.8506s1.6579-0.61412 0.66871-2.4404 2.375-2.8862 2.6794-1.5926 0.30437 0.38047 0.30437 0.60875z" fill="#120100"/>
  <path d="m140.57 215.49c4.4237 0.62547 8.2601 1.4328 10.266 4.2102s4.9578 3.7107 4.7515 7.8252c-0.20323 4.0539-0.41251 5.2498-0.41251 5.2498s1.1336-8.8506-3.6497-11.165-7.928-4.9746-10.86-4.666c-2.0568 0.2165-6.4836-1.1286-5.5544-2.4604 0.78176-1.1205 1.035 0.38088 5.4588 1.0064z" fill="#9b8884"/>
  <path d="m121.38752,225.29816c.34237-.0177.54922.26765.25226.41442-1.18472.58554-1.04046.9978-1.44145.88288-.42134-.12075-.67514-.93963-.3964-1.22523s1.0627-.12424 1.58559-.0721v3e-005z" fill="#ddbdb0"/>
  <path d="m122.14 229.04c0.64826-0.52194 1.3857-1.929 0.11463-1.8427s-1.8492 0.77264-2.048 1.711 1.2852 0.6536 1.9334 0.13166z" fill="#ddbdb0"/>
  <path d="m122.25 221.91c1.0427 0.45311 0.54896 1.5095-0.32037 1.5886s-1.2299 0.33595-1.4082-0.71126 0.6859-1.3304 1.7286-0.87729z" fill="#fff"/>
  <path d="m122.42 222.69c0.0984 0.86107-1.3376 1.346-1.923 0.9387-0.64613-0.44967-0.84833-1.0834-0.28851-1.4752 1.1068-0.89772 2.1131-0.32457 2.2115 0.5365z"/>
  <path d="m141.4 233.57c0.73978 0.96628 1.1143 2.3637 2.6301 1.657 1.2564-0.58576 0.45846-2.0153 0.45846-2.0153s1.0221 1.3222-0.0837 2.1241c-1.0452 0.7579-2.6682 0.0901-3.2284-0.05-2.0622-0.8553-1.1364-1.4848 0.22348-1.7159z" fill="#a67054"/>
  <path d="m115.62 221.89c0.1321-0.99076 0.0202-1.8027 1.1476-3.6829s4.0257-4.3871 5.0095-5.2077c-1.0143 1.0674-4.7659 3.0779-4.3377 8.1778 0.43498 1.2074-5.2192 4.5543-4.6796 4.0849 0.72559-0.6312 2.728-2.3812 2.8601-3.372z" fill="#ddbdb0"/>
  <path d="m108.83 245.75c0.52323-1.3877 0.88721-1.6834 1.6607-2.0247s2.1157-1.0237 2.3886-1.3649 0.77346-0.31849 0.56872-0.11375-3.5034 3.0484-3.8901 3.4578-1.0465 0.72797-0.72797 0.0455z" fill="#ddbdb0"/>
  <path d="m110.41 253.47c0.68348-4.4655 1.8458-3.588 3.562-4.6348 1.4657-0.89402 1.5659-1.106 1.5659-1.106s-5.366-0.59729-5.3067 1.5226c0.0484 1.7328-0.63843 3.0466 0.17881 4.2182z" fill="#ddbdb0"/>
  <path d="m138.49 112.94c0.11048 2.4902 7.6704 12.588 10.623 10.844s3.8867-1.5205 4.0209-3.6679-1.0737 0.26843-2.8185 1.2079-5.3195-0.23999-6.8449-2.4158c-1.4631-2.0869-5.0911-8.4581-4.9806-5.9679z" fill="#ddbdb0"/>
  <path d="m142.77 117.9c0.41183 0.72071 3.634 4.9782 6.6198 3.8457s10.096-9.2844 8.1394-15.977-3.3976-2.8828-2.9858-1.5444-1.1325 7.5159-1.7503 8.8544-3.4825 7.0679-4.615 7.2738-3.7608-0.80556-5.4082-2.4529z" fill="#4a2318"/>
  <path d="m137.5 112.22c-0.0837 4e-3 -0.15991 6e-3 -0.25 0.0312-0.72071 0.20592-1.9559 1.9704-1.75 3-0.20591 0.30887 2.7609 4.327 3.6875 5.5625s1.3382 2.8767 1.75 3.9062-1.5477 1.9392-2.0625 2.9688c-0.4881 0.97621-1.0771 8.2379 0.0312 8.0625s-2.4359 25.292-7.045 35.5c-2.5682 5.6877-5.7684 26.475-5.5625 29.77s5.7035-11.725 9.0363-14.424c3.7113-3.0064 1.0733 12.128 2.3088 15.423s6.7196-10.994 6.5136-15.936c-0.41183-4.1183-1.568-20.102-0.73519-26.651s3.0659-17.434 3.736-23.572c0.41184-2.2651 9.3146-8.1197 9.457-11.438 0.0777-1.8101-5.9983 12.098-14.263-2.8287-0.84515-1.5264-4.1106-7.0824-4.4195-8.0091-0.27026-0.81079 0.15278-1.3928-0.4328-1.3661l5e-5 5e-5z" fill="#6f3719"/>
  <path d="m152.58 243.39c0.53598 2.1439 1.4293 1.2506 1.7866 4.8238s0.99263 7.1246-0.71464 9.8263c-1.6851 2.6667-7.9044 11.223-6.7891 13.757 0.59354 1.3484-0.71463 3.0372 0.35732 4.6451s8.5757 8.397 9.1116 10.72c1.5434 6.5161-0.86144 14.202 0.71464 19.831 0.17866 2.5012 0.71464 6.6104-0.71464 7.5037s-7.325 0.71464-7.325 0.71464 3.3945-9.469 1.9652-13.935-3.7518-17.151-5.7171-19.117-10.541-8.0397-13.221-8.0397-6.2531 0.8933-7.1464-1.072-0.53598-3.3945 0.53598-5.1811 4.8894-4.8129 10.541-5.3598c5.5384-0.53598 10.005-1.072 12.506-2.6799s5.1811-4.6451 3.3945-6.2531-4.6452-2.5012-5.0025-3.7518 2.1439-6.4318 5.7171-6.4318z"/>
  <path d="m125.78 274.12c-1.9653 0-12.328 3.9305-13.935 8.5757s-4.1092 4.6452-3.9305 8.933 3.5732 11.792 3.3945 12.863-1.2506 8.2183-1.2506 8.2183 1.6079-9.1116-0.53598-11.792-3.0372-10.541-1.9652-13.578 3.7518-9.2903 6.6104-11.077 10.541-3.9305 10.541-3.9305l1.072 1.7866z"/>
  <path d="m154.55 244.03c0.80397 0.26799 5.2538 7.0441 5.7898 8.4734s1.2395 7.3213 1.0609 10.359 2.5924 11.248 3.6718 13.666c0.92135 2.0635-3.1469-7.1131-4.9335-5.6838s-4.5244 7.9189-3.4524 10.777-0.53598 3.7518-1.9653 2.5012-7.1464-7.1464-7.861-8.397-0.89329-3.9305 0.17866-6.2531 6.9677-12.328 7.5037-14.829-0.8933-9.2903-1.6079-10.541 0.81138-0.34066 1.6153-0.0727z" fill="#f0f4f5"/>
  <path d="m165.62 277.34c0 2.6799 1.072 9.6476-0.35732 12.328s-0.35732-0.35732-1.6079-0.53598-0.71464 1.4293-0.89329 5.5384 2.6799 6.2531 1.7866 8.5757 1.6079 5.5384-3.2159 10.541-9.8263 9.469-14.471 9.469-6.7891 0.35732-10.005-0.71464-29.3-8.933-30.729-9.6476-8.7543-7.861-9.8263-10.362-1.072-3.7518-1.072-3.7518-1.2506 6.6104 1.2506 10.184 9.6476 6.4317 13.221 8.7543 31.98 7.5037 35.375 7.1464 13.221-4.8238 14.114-5.8958 5.7171-5.3598 6.4318-8.0397 0.71464-7.6824 1.072-10.184 0.89329-10.898 0.89329-12.506-0.35732-9.8263-1.9652-10.898z" fill="#f9eaaf"/>
  <path d="m155.97 301.81c0.92624 4.9506 0.40069 7.2888 1.4293 11.256 0.85769 3.3076-9.0772 5.7817-13.042 4.6451-3.4775-0.9968-8.397-0.53597-9.2903-0.35732s0.35732-0.89329 0.35732-0.89329 3.7518-0.35732 6.6104-0.71464 13.399 0.53598 14.293-1.9653 1.072-10.362-0.35732-11.97z"/>
  <path d="m123.1 374.53c0.35732-0.8933 4.4665-5.7171 6.4318-6.9677s1.9652 0.53598 1.9652 0.53598 5.5384-1.6079 8.0397-5.0025 3.2159-3.7518 3.2159-3.7518 10.898-6.6104 12.685-7.861 9.2903-7.861 10.362-8.0397 4.1092 2.5012 4.1092 2.5012-26.799 16.258-28.228 17.509-13.221 9.2903-14.471 11.613-2.5012 4.8238-2.5012 4.8238l-1.6079-5.3598z" fill="#f9eaaf"/>
  <path d="m141.32 324.68c1.6079-0.17866 3.7518 0.35732 3.7518 0.35732s-2.3226 1.9652-4.6452 3.2159 0.35732 0.71464 2.8586 1.7866 3.9305 1.6079 6.0744-0.17866 7.861-5.5384 10.362-5.0025 5.5384 1.6079 4.2878 1.4293-13.042 4.2878-16.079 6.0744-5.8958 1.6079-5.8958 1.6079 1.2506 2.6799 4.8238 1.6079 5.8958-3.9305 8.2183-5.3598 5.8958-0.35732 4.6452 0-9.1116 1.4293-6.7891 1.9653 4.6452 3.0372 3.7518 2.5012-4.1092 2.1439-7.861 1.9653 1.7866 2.3226 2.8586 1.2506-0.17866 1.072-0.35732 1.7866 3.5732 5.1811 3.5732 5.8958-4.8238-0.8933-8.0397-1.6079-5.8958-0.35732-7.5037-1.2506-1.6079-1.7866 0.17866-3.9305 4.4665-2.3226 0.53598-2.6799-6.9677 1.9652-8.0397 0.35732-2.5012-6.7891-1.7866-8.933 4.1092-3.3945 4.1092-3.3945l6.9677 0.53598z" fill="#0d0906"/>
  <path d="m122.02 370.42c3.3945-2.1439 2.5012-4.8238 3.9305-7.861s6.7891-5.5384 12.328-6.7891 12.685-1.2506 16.615-5.8958 8.933-5.7171 9.469-6.4318-1.7866 3.3945-3.3945 4.1092-13.578 8.7543-16.615 10.541-6.0744 6.9677-8.5757 8.0397-3.0372 0.35732-6.0744 1.9652-6.4318 6.7891-6.4318 6.7891-3.2159-0.71464-3.7518-2.1439 2.6799-2.3226 2.5012-2.3226z" fill="#1a1a1a"/>
  <path d="m167.58 326.29c-3.5732 4.4665-4.8238 2.6799-6.2531 4.1092s1.6079 1.6079 4.2878 2.3226 3.7518 1.072 3.7518-0.53598 0.17866-5.3598-0.71464-5.7171-1.072-0.35732-1.072-0.17866z" fill="#f9eaaf"/>
  <path d="m159.19 320.22c-2.6799 2.1439-7.1464 4.1092-8.0397 5.3598s6.6104-3.5732 9.469-2.5012 5.5384 1.9653 5.0025 0.53598-4.8238-3.5732-6.4318-3.3945z" fill="#f9eaaf"/>
  <path d="m167.76 335.94c-0.53598 4.8238-1.2506 4.8238-3.5732 3.9305s-4.4665 2.8586-5.0025 0.8933 0.53598-5.0025 3.5732-5.0025 5.3598 0 5.0025 0.17866z" fill="#f9eaaf"/>
  <path d="m143.42 457.32c0 1.4888 2.4926 6.17 2.4926 6.17 0.3343 0.25281 45.213-7.5454 43.143-10.862-0.65693-1.0525-8.4144-3.9926-8.4144-3.9926s-31.514 5.9554-37.221 8.6849z" fill="#d9ae78"/>
  <path d="m108.63 288.95c-1.2506 3.5732 3.0372 12.149 3.0372 15.007s-2.3226 17.687-3.7518 21.439-0.71464 13.757-1.072 17.151-6.2531 14.65-7.1464 18.045-0.71464 14.293-2.5012 21.618-6.7891 24.298-7.325 26.084-3.2159 6.0744-5.1811 6.9677-2.1439 0.17866-3.2159-0.8933-2.1439-0.17866-2.1439 0.8933 1.4293 2.3226 1.9653 3.0372-0.8933 6.4317-3.2159 9.1116-7.325 7.861-7.6824 9.1116 2.5012 2.8586 3.7518 1.2506 5.5384-8.397 5.8958-9.1116-10.184 14.114-10.541 15.543 2.1439 2.6799 3.9305 1.7866 8.397-10.898 9.469-12.149-0.35732 6.4318-1.6079 9.469-3.7731 5.7171-2.8798 6.4317 3.7731 1.072 5.2024-1.2506 4.4665-10.362 4.4665-12.328-0.35732 8.397-0.53598 10.541 1.2506 3.7518 2.1439 2.6799 2.8586-10.898 2.6799-13.935 3.0372-5.7171 5.0025-8.7543 2.1439-10.005 2.5012-13.221 16.615-38.233 17.509-40.556 5.1811-18.938 5.1811-20.546 7.1464-11.434 8.2183-14.293 3.5732-13.399 3.5732-16.258c1.7422-7.1967 0.89543-4.9309 3.5732-5.7171s9.2903 0.17867 10.362-0.35731 2.6799-9.2903 3.0372-11.97-3.6268-12.207-5.0025-18.223-10.898-9.8263-13.221-11.077-6.4318-1.4293-8.5757-0.35732c-6.392 2.9609-12.18 8.7318-15.901 14.829z" fill="#a67054"/>
  <path d="m139.28 301.52c1.1803-1.9181 3.0984 0 3.541 4.1312s5.6863 9.2784 4.1179 9.5339c-1.7805 0.29008-9.5156 0.0554-10.8 0.92834s2.0131-11.881 3.1415-14.593z" fill="#371a12"/>
  <path d="m126.89 275.7c1.1803 4.4263 6.1968 8.8526 8.8526 7.6722s5.6712-3.3536 3.6753-4.786c-2.0484-1.4699-9.8721-4.6567-12.528-2.8862z" fill="#debfb3"/>
  <path d="m118.33 281.01c0.14754 2.9509-2.6558 3.2459-4.4263 9.7378s-6.1968 2.6558-4.7214-0.88526 9.0001-11.803 9.1476-8.8526z" fill="#e0c4b9"/>
  <path d="m124.91 309.91c-3.8335 0.0551-10.316 9.9226-12.188 14.469-2.0656 5.0165 0.28434 13.275-1.7812 17.406s-4.468 10.553-6.2386 17.34-4.0847 22.502-5.8552 32.535c-1.0292 5.8321-2.2136 10.151-2.6562 13.281h-0.03125c-1.7587 0.63111 1.7241 4.8753 0.54964 8.3986-1.1803 3.541-4.4263 9.3869-5.9017 12.043s-2.9585 7.3826-3.8438 11.219-5.8751 11.189-4.9899 12.369 2.7103-3.2871 4.1857-7.1232 2.6658-6.5981 2.3707-3.9423-0.86081 12.716-0.26628 10.061c0.61096-2.7282 1.2993-16.551 4.5486-19.362 4.9149-4.8708 6.882-11.726 6.1282-18.132 0.384-0.71885 1.6242-2.1019 2.0292-3.5869 0.88526-3.2459 13.784-33.315 15.021-38.489 1.5971-6.6825 1.1756-7.7059 2.356-13.017s4.1116-13.272 7.0625-19.469c0.96087-4.061 4.9132-24.453-0.5-26z" fill="#7e4c31"/>
  <path d="m107.71 345.93c-2.0656 5.0164-2.9509 10.918-4.7214 15.64s-1.7705 15.344-2.9509 20.066-4.4263 15.344-4.7214 21.246-2.3414 5.6458-6.4367 10.811-2.7102 7.3088-7.2169 16.161c-1.1803 2.3607-9.082 15.185-10.852 14.89s-0.34846-1.3682 0.13306-2.6159c1.0938-2.8343 8.1434-10.033 9.0286-11.803s-4.4263 1.7705-5.9017 3.8361-4.0122 3.4582-2.5367 1.3926 7.2115-7.8016 8.6869-10.752 1.227-6.2796 0.3417-8.3452 2.086 0.0985 3.5564-0.60056 3.5256-2.0552 4.7059-4.1208 7.9673-25.968 8.8526-28.623 2.9508-20.066 2.9508-22.426 3.6107-9.829 4.4959-11.6 2.291-5.8105 2.291-7.8761-0.29509-9.1476-0.29509-9.1476 3.5583-16.262 3.5583-14.196-1.7877 26.295-2.9681 28.065z" fill="#ddbdb0"/>
  <path d="m116.89 303.44c1.1803-7.0821 0.55708-18 5.2784-20.066s11.213 1.1803 10.623 9.4427 0.88526 12.099-2.0656 12.689c-5.2229-7.8221-14.366 5.809-13.836-2.0656z" fill="#7e4c31"/>
  <path d="m181.64 449.13c0.99256 0.74442 8.4368 3.9702 8.4368 3.9702s21.588-24.814 23.325-27.047 8.1886-12.655 7.1961-12.903-3.9702-1.2407-4.9628-1.9851-30.273 29.777-32.258 33.995-1.9851 4.7147-1.737 3.9702z" fill="#d9ae78"/>
  <path d="m130.77 397.02c1.4888 5.2109 3.7221 13.151 9.4293 15.881s8.4368 3.2258 11.911 6.2035 27.249 19.685 26.055 24.566c-0.17832 0.72895-33.076 1.1527-35.98 5.4591-2.1224 3.147-11.663-50.869-11.414-52.109z" fill="#ccc"/>
  <path d="m179.65 357.07c-1.737 6.9479-14.888 21.836-19.355 27.544s-8.933 20.347-8.933 20.347 2.9777-13.648 13.151-22.333 14.64-18.362 15.385-21.588-2.7295 14.64-9.6775 19.355-12.407 20.596-12.655 22.084 1.9851-9.4293 11.166-20.099 16.874-10.918 16.874-10.918-6.4516 10.174-9.6774 10.174-9.6774 6.6998-11.414 9.1812-3.2258 3.474 3.9702-1.737 16.377-7.9405 17.866-11.663-5.4591 16.874-12.159 20.844-9.9256 9.6775-9.9256 9.6775 19.851-10.67 24.318-26.303 3.2258-9.4293 3.474-11.911 3.9702-0.74442 2.9777-3.9702-6.6998-7.4442-9.1812-11.414-3.474-4.7147-7.196-5.4591-6.2035 2.2333-15.137 4.9628-13.151 6.6998-15.633 9.1812-0.24814-0.24814 4.4665-2.7295 14.64-6.9479 21.092-6.6998 5.7072 3.2258 6.2035 3.474z" fill="#ccc"/>
  <path d="m202.73 387.84c-0.24814 3.2258-2.2333 3.9702-3.7221 5.7072s2.7295 3.9702-2.4814 8.6849-2.4814 5.9554-8.933 4.7147-14.144 4.9628-15.385 5.9554 3.2258-2.4814 6.6998-3.7221 9.1812 0 12.903-1.4888 7.9405-9.6775 6.6998-7.6923-8.6849 6.6998-15.881 11.911-4.2184 7.6923-4.2184 7.6923-3.7221-0.49628 4.2184-6.4516 11.911-2.2332 15.137-7.6923-9.1812 5.2109-13.151 11.414-2.2332 7.1961-2.2332 7.1961-0.74442-5.7072 7.196-11.414 11.663-9.4293 11.663-9.4293-14.64 13.896-16.377 18.114-1.9851 4.2184 2.4814-0.24814 10.67-11.911 12.903-14.392 1.4888 0.99256-2.4814 7.196-3.7221 3.474 1.4888-0.49628 14.144-2.7295 14.144-5.9554-0.49628-11.663-3.474-15.633-7.1961-3.7221-7.1961-3.9702z" fill="#ccc"/>
  <path d="m125.81 378.66c3.474 9.4293 5.9554 11.414 8.1886 9.1812s1.4888 1.737 0.24814 2.9777-0.99256-1.2407 4.2184 0.49628 11.414-3.7221 8.1886 0.24814-11.414 2.9777-12.655 5.9554-1.9851 9.1812-1.737 11.166-2.7295-12.655-4.2184-15.633-3.474-14.144-3.474-14.144 1.737-2.4814 1.2407-0.24814z" fill="#ccc"/>
  <path d="m177.67 445.41c0.99256-4.7147 6.9479-12.407 10.918-16.377s18.61-15.385 20.844-18.859 4.2184-3.7221 4.2184-3.7221l2.7295 5.4591s-14.64 13.151-19.107 19.355-13.896 17.37-14.144 18.859-5.2109-4.4665-5.4591-4.7147z" fill="#1a1a1a"/>
  <path d="m141.23 449.4c1.1098-4.7282 33.645-6.3622 35.699-6.474 1.9976-0.10872 5.4591 6.6998 5.4591 6.6998s-8.4368 1.4888-14.888 2.4814-18.859 3.474-21.34 5.4591-2.7295 1.2407-2.7295 1.2407l-2.1997-9.407z" fill="#1a1a1a"/>
  <path d="m207.68 432.28c0.97396 10.506 14.036 14.473 16.546 10.59 1.2135-1.8776-11.022-12.698-12.68-13.883s-3.8653 4.2409-3.8653 3.293z" fill="#a67054"/>
  <path d="m258.3 471.24c0.8294 2.2506 13.391 14.724 15.05 14.961s2.0117 0.75126 1.5378-1.3815-11.84-14.634-13.262-15.582-4.1558-0.24768-3.3264 2.0029z" fill="#a67054"/>
  <path d="m209.21 465.31c0.84957-3.3983 7.009-15.292 8.7081-18.053s6.1594-7.8585 6.1594-7.8585 18.266 8.4957 21.664 11.257 16.779 17.416 16.779 18.478-5.0974 8.7081-7.8585 11.469-5.3098 8.9205-6.5842 8.0709-16.567-15.505-20.39-17.629c-2.1732-1.2073-18.903-6.1594-18.478-5.7346z"/>
  <path d="m258.27 498.44c2.5487-2.9735 9.3453-9.5577 11.044-11.257s4.6726-3.6107 6.1594-2.7611 15.505 17.204 14.868 18.691-12.106 14.868-13.806 15.08-17.204-17.841-18.266-19.753z"/>
  <path d="m270.02 579.32c-1.5738-2.9228 0.44966-9.8925-0.22483-13.265s-6.0704-9.218-6.9697-13.265-2.4731-12.815-6.2952-16.188-2.698-4.0469-0.89932-3.3724 7.1946-8.0939 8.7684-7.6442 0.89932 2.9228 3.1476 5.8456 3.5973-4.2718 4.9463-0.67449 11.466 11.466 7.6442 17.762-6.5201 21.809-8.0939 27.204-1.5738 4.0469-2.0235 3.5973z" fill="#371a12"/>
  <path d="m271.59 580.44c1.1242-2.2483 12.815-28.553 13.49-32.151s4.7214-10.342 4.4966-11.242-4.2718 5.3959-5.8456 8.7684-10.342 26.755-11.466 29.453-2.4731 4.9463-0.67449 5.1711z" fill="#d9ae78"/>
  <path d="m270.62 581.47c4.9948-1.3126 13.956-31.033 14.918-32.953 0.95052-1.8961 3.8221-3.5973 4.2718-2.0235s-11.017 35.523-13.04 35.973-5.9252-0.0968-6.15-0.99612z" fill="#ccc"/>
  <path d="m290.28 503.22c1.4963 1.8288 4.4889 3.6576 6.6503 3.6576s14.298 0.49877 16.626 1.8288 9.9754 5.3202 9.9754 5.3202-9.8092 24.273-12.137 28.762-6.9828 13.966-9.1441 16.459-11.472 19.12-13.799 19.12-4.8214-2.4938-5.819-3.8239 1.1638-8.3128 2.3276-11.97 3.3251-19.785 0.16626-23.442-5.6527-5.4865-7.3153-10.474-3.1589-7.6478-3.9902-9.1441 2.6601-0.83128 3.4914-1.4963 12.636-14.963 12.968-14.797z" fill="#d9ae78"/>
  <path d="m280.64 515.85c2.9926 3.3251 6.8165 2.4938 6.484 5.819s3.1589 7.9803 4.3227 12.636 5.6527 9.6429 2.4938 17.789-5.0368 17.048-7.3644 20.041-3.1098 3.4012-3.7748 1.5724 5.4865-27.931 3.9902-30.757-7.4816-7.8141-8.3128-10.807-6.8565-11.735-6.0252-12.733 3.6976-0.235 4.5289-0.73377 3.4914-2.8264 3.6576-2.8264z"/>
  <path d="m288.62 519.84c3.8239-5.4865 5.819-12.137 12.636-10.64s4.3227 2.4938 4.6552 8.9779 4.9687 6.7975 2.8074 11.951-7.3153 21.281-12.469 26.767-10.123 15.813-9.6239 13.818 7.9693-23.756 7.138-25.585-5.1429-17.31-5.9742-19.97-0.83129-3.6576 0.83128-5.3202z" fill="#371a12"/>
  <path d="m316.72 511.53c-2.9926 4.3227-5.9742 16.176-7.3042 21.164s-4.5 12.586-7.4926 17.408-7.784 12.284-10.444 17.105-6.3478 9.8282-7.1791 8.9969 1.1638-1.9951 2.3276-4.9877 9.1441-13.301 10.64-16.293 10.142-21.281 10.807-24.772 0.16626-8.1466 2.8264-13.134 5.6527-6.8165 5.6527-6.8165l0.16625 1.33z" fill="#d9ae78"/>
  <path d="m285.3 576.2c2.3276-4.9877 15.98-24.821 16.977-27.481s5.9662-16.078 7.795-21.232 5.9362-16.44 6.6012-16.939 7.111 2.2104 7.1791 3.6386c0.0531 1.114-7.2472 17.321-8.411 21.145s-13.32 25.789-15.481 29.28-9.3365 13.511-10.973 13.848c-2.7676 0.57043-3.9372-1.3728-3.6877-2.2595z" fill="#ccc"/>
  <path d="m280.55 531.62c1.0166-1.8288 6.7374-4.4589 7.9012-4.7914s-0.99754 2.4938-3.4914 4.3227 1.3301-0.49877 2.9926-1.4963 2.8264-0.99754 2.3276 0.49877-4.1564 2.4938-5.9852 4.3227 2.3276-1.4963 4.8214-2.4938 4.0092-1.1939 1.3491 0.4687-4.6552 6.3178-7.149 5.3202-3.7828-4.3227-2.7662-6.1515z" fill="#fff"/>
  <path d="m209.32 465.33c-2.698 3.1476-10.792 11.916-11.242 13.04s34.849 27.879 36.198 28.329c5.6482-2.2326 13.11-11.893 12.985-15.779l-32.787-30.366-5.1539 4.7769z"/>
  <path d="m254.65 499.75c-2.4731 1.5738-11.162 15.264-12.286 16.164s15.288 17.087 15.288 17.087 13.498-13.609 13.618-14.607c0.26586-2.2167-15.346-19.469-16.62-18.644z"/>
  <path d="m259.9 542c3.8221-3.1476 6.0079-5.1882 4.4341-3.3896s-1.5113 4.0641-2.6355 4.5138 6.0079-5.6379 5.1086-3.8393-7.1321 7.6614-5.3334 6.0876 8.2562-7.4366 5.5583-2.94-4.659 5.4131-5.7831 4.7386-1.1242-5.1711-1.349-5.1711z" fill="#fff"/>
 </g>
</svg>
